<?xml version="1.0" encoding="UTF-8"?>
<svg version="1.1" xmlns="http://www.w3.org/2000/svg" width="1440" height="1441">
<path d="M0 0 C475.2 0 950.4 0 1440 0 C1440 475.53 1440 951.06 1440 1441 C964.8 1441 489.6 1441 0 1441 C0 965.47 0 489.94 0 0 Z " fill="#FEFEFE" transform="translate(0,0)"/>
<path d="M0 0 C3.89384136 2.09668381 6.79298669 4.15675268 9 8 C9.35678529 10.81265735 9.52397501 13.31333098 9.5 16.125 C9.49355469 16.92341309 9.48710938 17.72182617 9.48046875 18.54443359 C9.21233079 27.52881923 6.79579577 35.52188374 4 44 C3.44676548 45.75745053 2.89472908 47.51527856 2.34375 49.2734375 C-17.68596022 112.10382076 -46.65231821 173.0409605 -79.39257812 230.17919922 C-80.98079942 232.96630566 -82.54845345 235.76393204 -84.109375 238.56640625 C-94.88742992 257.88740453 -106.34182616 276.79337251 -118.25 295.4375 C-118.81404541 296.32083008 -119.37809082 297.20416016 -119.95922852 298.11425781 C-124.48287749 305.19361482 -124.48287749 305.19361482 -126.73535156 308.70605469 C-141.69233145 332.10202603 -150.61478077 354.75079068 -156 382 C-156.226875 383.1034375 -156.45375 384.206875 -156.6875 385.34375 C-159.43634243 400.46238336 -160.26286987 418.64074009 -152.03515625 432.25 C-148.21916087 437.4063546 -143.32673825 441.49363375 -137 443 C-90.71828171 448.6307135 -37.04171413 409.65372472 -2.890625 382.921875 C-0.24473837 380.86935744 2.44706163 379.09553359 5.328125 377.390625 C11.47646983 373.54859043 11.47646983 373.54859043 16 368 C16.9687929 363.23376099 16.56466371 358.54389086 16.22290039 353.72265625 C15.42597598 341.2479975 20.51102255 332.71860771 28.5 323.4375 C32.46261616 319.380052 36.61783242 315.59730175 41 312 C41.7940625 311.3296875 42.588125 310.659375 43.40625 309.96875 C48.66003135 305.62302963 53.86314007 301.97363294 60 299 C60.92683594 298.53335937 61.85367187 298.06671875 62.80859375 297.5859375 C70.9505596 293.79552947 79.19645361 292.0542178 87.9375 295.0625 C91.77342385 297.48930897 94.12366409 299.84881435 96 304 C96.90425891 310.3298124 95.64366096 314.767822 92 320 C85.98077633 327.28921372 78.43329505 332.49878321 70.71923828 337.81103516 C58.67146148 345.65288179 58.67146148 345.65288179 49 356 C49.21638901 360.97694731 50.7168263 363.35984201 54 367 C56.18150648 368.85863781 58.47877007 370.52593495 60.8125 372.1875 C61.79512817 372.8997876 61.79512817 372.8997876 62.79760742 373.62646484 C67.38586293 376.92545395 72.07758182 380.04214995 76.8125 383.125 C83.87185558 387.73230258 90.49375296 392.84289273 95.95703125 399.3203125 C97.85743773 401.24891143 97.85743773 401.24891143 100.31640625 400.98046875 C103.71963291 399.73707735 106.80871952 398.1172765 109.9375 396.3125 C110.62932373 395.91732178 111.32114746 395.52214355 112.03393555 395.11499023 C163.75274598 365.47029516 163.75274598 365.47029516 206.99609375 325.19042969 C216.54413515 313.48528828 216.54413515 313.48528828 224 311 C230.12455118 310.49798761 233.12517646 310.90071656 238 315 C240.57875439 317.2394446 241.81843588 318.83105349 242.34765625 322.23828125 C242.62429656 330.35707284 240.81599318 338.13711884 239 346 C238.79068848 346.92184082 238.58137695 347.84368164 238.36572266 348.79345703 C235.30654671 362.19710763 231.82012144 375.38380714 227.75878906 388.515625 C223.77153667 401.57041274 220.19097216 414.7293099 217 428 C228.42857832 423.19999711 237.77700067 414.11418807 247.10864258 406.12231445 C250.94950682 402.8459593 254.8836131 399.71539411 258.875 396.625 C269.83880085 388.1060992 280.16317809 378.85326022 290.3515625 369.4296875 C292.64093397 367.32940865 294.95961618 365.27834812 297.3125 363.25 C300.4316772 360.54885686 303.33187404 357.69201945 306.21875 354.74609375 C308.63390636 352.37860495 311.20514701 350.21859633 313.8125 348.06640625 C319.07744612 343.0929125 323.48478136 337.45287635 327.72998047 331.60522461 C339.61858614 315.32029252 339.61858614 315.32029252 349.625 313.25 C355.12054807 314.4712329 359.15504067 317.03973071 363 321.125 C365.77037635 329.08983202 364.00245211 336.24209066 360.49487305 343.63574219 C360.00156494 344.62219727 359.50825684 345.60865234 359 346.625 C358.49960205 347.67333008 357.9992041 348.72166016 357.48364258 349.80175781 C355.62001541 353.6965091 353.71148436 357.56783973 351.79052734 361.43457031 C347.7301667 369.61342652 344.20973322 377.70082048 341.5 386.4375 C341.24436279 387.24219727 340.98872559 388.04689453 340.7253418 388.87597656 C338.72698943 395.69975594 337.79026885 402.56181673 340.1875 409.375 C342.86551843 413.25350945 345.52374767 415.50791589 350 417 C372.77436712 419.93707483 399.36539288 405.94061755 419 396 C419.75361816 395.62375488 420.50723633 395.24750977 421.28369141 394.85986328 C426.19822436 392.3952646 431.0539848 389.84688051 435.86035156 387.17724609 C437.19580137 386.44247441 438.54033881 385.7237125 439.89746094 385.02978516 C443.58127327 383.13348994 446.49325084 381.32986082 449 378 C449.83907621 373.99108035 449.95092482 370.31104053 449.91796875 366.234375 C449.88633911 355.61654675 454.23793988 345.31340962 459 336 C459.40605469 335.15566406 459.81210937 334.31132813 460.23046875 333.44140625 C472.45856088 309.30795756 493.78328046 288.47353266 519.38671875 279.12890625 C530.03265227 276.27555993 542.17932108 276.95164856 551.9921875 282.03125 C557.56702597 285.57234912 560.93175781 290.79527344 563 297 C564.3689895 313.70167188 559.54777429 326.63142183 548.67626953 339.57617188 C545.55662819 343.15461621 542.29873461 346.58682964 539 350 C538.07380859 350.98613281 538.07380859 350.98613281 537.12890625 351.9921875 C524.6571543 364.97238018 508.92382144 375.71548391 493.08911133 384.14648438 C488.58474511 386.49435294 488.58474511 386.49435294 485 390 C485.12932372 393.8797116 487.37856773 396.31463036 490 399 C501.12188503 407.18636891 512.34669038 408.51791351 525.875 408.375 C526.55364105 408.3713443 527.2322821 408.3676886 527.93148804 408.36392212 C538.80789741 408.29549496 549.41169565 407.47975946 560.1184082 405.51171875 C563.1214523 404.97843226 566.13231976 404.50744152 569.14523315 404.03379822 C578.65781864 402.5156573 587.99213027 400.51304557 597.34204102 398.203125 C599.69518075 397.6231068 602.05138776 397.05706222 604.40820312 396.4921875 C613.4145825 394.30696753 622.1646213 391.72005768 630.93234253 388.69873047 C634.94017639 387.34434964 638.97746726 386.08162828 643.01171875 384.80859375 C643.88154892 384.53354004 644.75137909 384.25848633 645.64756775 383.97509766 C648.3272383 383.12825626 651.00731527 382.28271254 653.6875 381.4375 C668.83244214 376.65983408 683.92434741 371.85154017 698.8125 366.3125 C699.97378418 365.88187256 701.13506836 365.45124512 702.33154297 365.00756836 C711.06105735 361.75643336 719.74784928 358.40395519 728.40161133 354.95629883 C745.79906457 348.05561503 745.79906457 348.05561503 753 349 C756.01302399 350.76851408 758.41291385 352.82582769 760 356 C760.54208063 360.56896534 760.69360264 363.75563322 757.9375 367.5625 C749.01618638 376.42229654 733.83194664 380.00113403 722.125 383.875 C719.00911244 384.92061862 715.89523198 385.97215972 712.78125 387.0234375 C712.01817535 387.28014221 711.25510071 387.53684692 710.46890259 387.80133057 C704.14942547 389.93260654 697.88364793 392.1964956 691.625 394.5 C666.44318167 403.68418 640.76549111 411.53400766 615.05664062 419.09521484 C612.41296196 419.87776062 609.77545589 420.67656883 607.140625 421.48828125 C595.89349467 424.93564788 584.516393 427.61354529 573 430 C572.08379883 430.20044922 571.16759766 430.40089844 570.22363281 430.60742188 C556.0074147 433.65553894 541.98964201 434.4134472 527.5 434.5 C526.65818176 434.51044342 525.81636353 434.52088684 524.94903564 434.53164673 C502.96386351 434.74489448 481.45591638 429.7055809 464.60546875 414.65625 C461.73375431 411.69370274 459.34597999 408.38577332 457 405 C452.65684926 406.32880793 448.83630226 408.02232331 444.8515625 410.1953125 C444.28208389 410.50382141 443.71260529 410.81233032 443.12586975 411.13018799 C441.91526471 411.78628012 440.70571603 412.44432469 439.49716187 413.10418701 C436.33713516 414.82721982 433.16585294 416.52933441 429.99609375 418.234375 C429.37742935 418.56758759 428.75876495 418.90080017 428.12135315 419.24411011 C400.90454171 433.90275178 366.49229532 451.32420231 334.81640625 442.1015625 C325.32526473 438.38935458 318.46076267 432.89037468 313.88793945 423.78588867 C311.12809053 417.40805339 310.43083932 412.03347976 310.625 405.125 C310.63789062 404.16770996 310.65078125 403.21041992 310.6640625 402.22412109 C310.81346043 395.3389775 311.41266495 388.71782869 313 382 C300.55873228 390.35342261 288.79380983 399.26520463 277.19189453 408.73852539 C276.53044434 409.27856201 275.86899414 409.81859863 275.1875 410.375 C274.52089355 410.91954834 273.85428711 411.46409668 273.16748047 412.02514648 C267.00348216 417.03976212 260.70090813 421.86042325 254.375 426.66796875 C239.52283256 437.95816746 224.67904597 449.29073714 211 462 C210.24066414 462.69011925 210.24066414 462.69011925 209.46598816 463.3941803 C206.94243436 466.15844029 206.02430999 469.76678409 204.80078125 473.24609375 C204.34920403 474.50129066 204.34920403 474.50129066 203.88850403 475.78184509 C200.53915024 485.15718014 197.37431806 494.59671395 194.2059021 504.03433228 C188.21257713 521.85518441 182.12956786 539.59512435 175 557 C174.56913086 558.05268066 174.13826172 559.10536133 173.69433594 560.18994141 C167.19346595 575.97476411 160.26841952 591.55460853 153 607 C152.46503906 608.13840332 151.93007813 609.27680664 151.37890625 610.44970703 C126.69682755 662.77086867 97.34203698 715.63688788 58.14453125 758.640625 C56.27606887 760.69627396 54.44306264 762.77489901 52.625 764.875 C11.07874264 812.48008656 11.07874264 812.48008656 -14.234375 814.22265625 C-23.07324462 814.44078286 -29.85555002 813.78953364 -37.25 808.8125 C-45.70466178 800.16568682 -48.34968614 790.24242631 -48.41748047 778.33496094 C-48.40346191 777.19317383 -48.38944336 776.05138672 -48.375 774.875 C-48.36484863 773.67649414 -48.35469727 772.47798828 -48.34423828 771.24316406 C-48.19934385 762.93812949 -47.59480605 755.18451377 -45.53027344 747.11035156 C-44.92337668 744.69505893 -44.38983024 742.26742282 -43.8515625 739.8359375 C-31.25916441 685.29102099 4.34983734 633.67513234 40.5625 591.8359375 C42.91355486 589.1005756 45.18052319 586.31316038 47.4375 583.5 C52.21479727 577.63463503 57.33548417 572.12658953 62.50439453 566.60888672 C63.8804174 565.12864012 65.23615364 563.62960343 66.58984375 562.12890625 C73.57992895 554.3997812 80.89109729 547.0007299 88.25 539.625 C88.7696936 539.1027182 89.28938721 538.5804364 89.8248291 538.04232788 C95.17305564 532.67310928 100.53107241 527.36364911 106.32128906 522.46435547 C108.13269224 520.8842513 109.81738522 519.21590662 111.5 517.5 C114.42130788 514.53284199 117.47991673 511.79941029 120.6328125 509.08203125 C123.63722608 506.43953548 126.5673253 503.72158243 129.5 501 C134.2663787 496.58518398 139.06277897 492.22416717 144 488 C144.96292969 487.16984375 145.92585938 486.3396875 146.91796875 485.484375 C152.41659294 480.76959724 157.98164427 476.19393795 163.75 471.8125 C164.82995962 470.97985692 165.90940028 470.14654024 166.98828125 469.3125 C168.84064599 467.89019141 170.70986658 466.48915148 172.60546875 465.125 C187.91043854 453.22968009 191.23405902 424.05552113 195.4921875 406.12988281 C196.07983317 403.66516125 196.68064555 401.2037825 197.28125 398.7421875 C201.50156987 383.05775878 201.50156987 383.05775878 203 367 C196.9637594 368.79111532 191.73096014 371.01714029 186.375 374.3125 C185.30318481 374.95783691 185.30318481 374.95783691 184.2097168 375.61621094 C182.6427124 376.56183712 181.07827274 377.51172337 179.51611328 378.46533203 C176.86964338 380.07950919 174.21474944 381.67916027 171.55859375 383.27734375 C159.27423428 390.68784509 147.09418831 398.25049603 135.05419922 406.05175781 C132.25547796 407.83703324 129.43524338 409.57815984 126.60177612 411.30725098 C124.10137468 412.84237361 121.62079553 414.40782049 119.1427002 415.9786377 C117.93847779 416.7329132 116.72638915 417.47479691 115.50622559 418.20300293 C108.30672622 422.39870341 108.30672622 422.39870341 103.66625977 429.04101562 C102.85789826 432.16797578 102.85789826 432.16797578 102.48583984 435.17431641 C100.69624761 445.58272875 91.45958946 453.5984586 83.375 459.5625 C72.16387524 467.09389976 58.67359587 473.98714105 45 475 C44.24332031 475.06316406 43.48664063 475.12632812 42.70703125 475.19140625 C34.73497048 475.57455956 28.11309607 473.65910289 22 468.4375 C18.29877425 463.92663111 17.42078462 461.34468872 17.5703125 455.62109375 C18.95872783 447.15176026 27.5242967 441.72075838 34 437 C38.25165772 434.30833689 42.60861354 431.83050844 47 429.375 C49.22960976 428.11276153 51.45878278 426.84975126 53.6875 425.5859375 C54.74710938 424.98749023 55.80671875 424.38904297 56.8984375 423.77246094 C61.30853901 421.25220456 65.66121126 418.6407357 70 416 C69.61544116 413.65490844 69.3198351 412.31814791 67.61157227 410.61889648 C67.01916748 410.20712158 66.4267627 409.79534668 65.81640625 409.37109375 C65.14440186 408.89857178 64.47239746 408.4260498 63.7800293 407.93920898 C63.04824463 407.44364502 62.31645996 406.94808105 61.5625 406.4375 C60.43678589 405.65838257 60.43678589 405.65838257 59.28833008 404.86352539 C52.26900082 400.06166771 45.03216041 395.63327439 37.73046875 391.27734375 C35.02914421 389.65681458 32.46377233 387.97231118 30 386 C25.98251088 387.66341559 23.01996356 390.4625823 19.8125 393.3125 C11.83135267 400.26801286 3.491377 406.68301534 -5 413 C-6.09103027 413.81452637 -6.09103027 413.81452637 -7.20410156 414.64550781 C-23.99688859 427.13435473 -41.52928563 438.16648693 -60 448 C-60.9904834 448.53318848 -60.9904834 448.53318848 -62.00097656 449.07714844 C-88.65358421 463.33381702 -120.36207988 475.54984316 -150.8125 468.04296875 C-164.55272935 463.54708488 -173.81440509 454.8375798 -180.48046875 442.19140625 C-185.52071761 431.53445778 -186.27413814 422.7130803 -186.125 411 C-186.11494978 409.63932951 -186.10582754 408.27865183 -186.09765625 406.91796875 C-186.0742082 403.61179353 -186.04138856 400.3059912 -186 397 C-189.63261666 400.54114789 -192.99447022 404.23253146 -196.25 408.125 C-196.72961182 408.69484619 -197.20922363 409.26469238 -197.70336914 409.85180664 C-200.64536539 413.35576271 -203.55055705 416.88797998 -206.4375 420.4375 C-214.03810893 429.76490201 -221.90020538 438.86935681 -229.9921875 447.7734375 C-231.84035297 449.82295952 -233.64227688 451.90418138 -235.4375 454 C-242.89788604 462.52370542 -251.0323141 470.08814723 -260 477 C-260.52577637 477.40750488 -261.05155273 477.81500977 -261.59326172 478.23486328 C-270.46792175 485.04881939 -279.7468094 490.50667454 -290 495 C-290.65709961 495.28842773 -291.31419922 495.57685547 -291.99121094 495.87402344 C-299.89245676 499.10722088 -309.2793943 499.47260406 -317.5 497 C-323.20405802 494.29677251 -326.75890742 489.73845796 -329.32421875 484.078125 C-334.64004117 468.78347804 -332.23960263 453.67491406 -325.46777344 439.26928711 C-309.33442045 406.64849393 -286.15026028 373.22346576 -257 351 C-255.99582031 350.19175781 -254.99164063 349.38351562 -253.95703125 348.55078125 C-238.13044056 335.87148241 -214.56816319 319.99477618 -193.5390625 320.7109375 C-185.88530708 321.58228812 -178.89595913 324.71858949 -172 328 C-171.71568115 327.13044678 -171.4313623 326.26089355 -171.13842773 325.36499023 C-170.08932302 322.26402298 -168.96299407 319.21415175 -167.78515625 316.16015625 C-167.35235352 315.0316626 -166.91955078 313.90316895 -166.47363281 312.74047852 C-165.77512207 310.91987915 -165.77512207 310.91987915 -165.0625 309.0625 C-161.12870783 298.78159128 -157.37477765 288.45695377 -153.75 278.0625 C-135.12171287 224.88625048 -111.79910114 173.39579687 -86.92706299 122.88342285 C-86.02665064 121.05414349 -85.12812196 119.22394986 -84.22998047 117.39355469 C-24.7561117 -3.60088897 -24.7561117 -3.60088897 0 0 Z " fill="#020202" transform="translate(524,320)"/>
<path d="M0 0 C0.2304973 4.64530643 -0.47772978 8.07388324 -2.0625 12.43359375 C-2.28505966 13.05116547 -2.50761932 13.66873718 -2.73692322 14.30502319 C-3.48006053 16.35348536 -4.23890989 18.39564518 -5 20.4375 C-5.26265656 21.15030121 -5.52531311 21.86310242 -5.79592896 22.59750366 C-15.82991015 49.80717385 -26.9197557 76.6162914 -39.453125 102.77099609 C-41.03223573 106.06729005 -42.59530648 109.3708504 -44.15625 112.67578125 C-53.36820237 132.11505171 -63.45149044 150.76880083 -74.39746094 169.28710938 C-75.76332624 171.59934204 -77.12157389 173.91576308 -78.4765625 176.234375 C-93.15600037 201.21098756 -110.45457344 224.76984994 -129 247 C-129.41910645 247.51079102 -129.83821289 248.02158203 -130.27001953 248.54785156 C-165.87117269 291.88724727 -165.87117269 291.88724727 -188.87109375 294.25 C-191 294 -191 294 -192.7109375 292.69921875 C-198.16192182 285.51383033 -196.70852231 273.37814973 -195.76123047 264.85058594 C-195.06877776 259.85169337 -194.07929035 254.92796856 -193 250 C-192.74476563 248.78957031 -192.48953125 247.57914063 -192.2265625 246.33203125 C-189.53047741 234.99115956 -184.83498981 224.5663342 -180 214 C-179.54560547 213.00081543 -179.09121094 212.00163086 -178.62304688 210.97216797 C-164.86704718 180.92940523 -147.28494699 153.06743714 -127 127 C-126.06767848 125.79038759 -125.13538673 124.58075224 -124.203125 123.37109375 C-115.96358712 112.73578523 -107.33199718 102.45260321 -98.265625 92.51171875 C-96.38283409 90.42441779 -94.53151803 88.31665557 -92.6875 86.1953125 C-83.22268256 75.36125147 -73.15298133 65.06089374 -63 54.875 C-62.22366211 54.09406982 -61.44732422 53.31313965 -60.64746094 52.50854492 C-56.47588708 48.34817533 -52.21018674 44.37203488 -47.74609375 40.52783203 C-45.5598008 38.6148257 -43.52235995 36.58458641 -41.5 34.5 C-38.16541229 31.12557933 -34.74286696 27.94787821 -31.140625 24.86328125 C-28.66813514 22.71113223 -26.27728643 20.48019281 -23.875 18.25 C-3.88957055 0 -3.88957055 0 0 0 Z " fill="#FDFDFD" transform="translate(693,813)"/>
<path d="M0 0 C-0.36869282 19.54071947 -25.59084023 41.37681104 -38.33203125 55.0859375 C-40.28031693 57.21393327 -42.16534181 59.35977148 -44.0390625 61.55078125 C-48.75517688 66.95595283 -53.80586003 72.02858284 -58.86743164 77.10766602 C-60.54201726 78.79189926 -62.20556475 80.48654177 -63.86914062 82.18164062 C-93.0431412 111.64126605 -93.0431412 111.64126605 -107.75 113.3125 C-110 113 -110 113 -112 111 C-113.30985684 90.74088094 -92.71396347 67.6826318 -81 53 C-80.2265625 52.01902344 -79.453125 51.03804687 -78.65625 50.02734375 C-66.53618215 35.16491877 -24.18001895 -16.12001263 0 0 Z " fill="#FCFCFC" transform="translate(335,673)"/>
<path d="M0 0 C1.14644649 3.43933946 0.84625854 4.22128657 -0.265625 7.55859375 C-0.57218018 8.48583252 -0.87873535 9.41307129 -1.19458008 10.3684082 C-1.54286865 11.3812085 -1.89115723 12.39400879 -2.25 13.4375 C-2.79853638 15.04661255 -2.79853638 15.04661255 -3.3581543 16.68823242 C-17.65504366 58.04442544 -35.83805711 98.72787925 -56.53808594 137.27197266 C-58.21397284 140.39928732 -59.87651244 143.53354427 -61.5390625 146.66796875 C-71.93906043 166.24843954 -82.3386554 185.76430236 -95 204 C-96.38856877 200.24851649 -95.58300169 197.92664749 -94.296875 194.21484375 C-93.89895752 193.05742676 -93.50104004 191.90000977 -93.09106445 190.70751953 C-92.64489509 189.45054357 -92.19785138 188.19387766 -91.75 186.9375 C-91.29451 185.6391619 -90.83902504 184.34082203 -90.38354492 183.04248047 C-84.10785365 165.30123008 -76.94595067 147.94594278 -68.90957642 130.93127441 C-67.71241307 128.3893759 -66.52898537 125.8411999 -65.34567261 123.29283142 C-51.99910022 94.56532826 -38.37571347 65.9636716 -22.46289062 38.55419922 C-20.00567937 34.2639215 -17.66787428 29.90922107 -15.3125 25.5625 C-10.55195439 16.81686654 -5.38928097 8.3703366 0 0 Z " fill="#F7F7F7" transform="translate(499,384)"/>
<path d="M0 0 C2 2 2 2 2.1875 3.84765625 C0.94211606 18.55875401 -13.53374126 30.37496646 -24.09375 39.43164062 C-27.92362425 42.58265397 -31.89049007 45.54845461 -35.875 48.5 C-36.68372559 49.09973633 -37.49245117 49.69947266 -38.32568359 50.31738281 C-48.87779113 58 -48.87779113 58 -53 58 C-53 40.45512379 -38.65859869 23.87720895 -27.1015625 12.05859375 C-19.93611624 5.30130582 -10.21393426 -1.73444167 0 0 Z " fill="#FAFAFA" transform="translate(1058,624)"/>
<path d="M0 0 C0 0.66 0 1.32 0 2 C0.928125 2.2784375 0.928125 2.2784375 1.875 2.5625 C4 4 4 4 5.3125 7.1875 C6.54652299 14.03071839 5.41869655 17.79750328 1.5625 23.5 C-2.56881339 28.92141667 -7.22051158 32.47892624 -13 36 C-13.99 36.66 -14.98 37.32 -16 38 C-18.59375 38.265625 -18.59375 38.265625 -21.5 38.25 C-22.93859375 38.25773438 -22.93859375 38.25773438 -24.40625 38.265625 C-27 38 -27 38 -30 36 C-30 35.34 -30 34.68 -30 34 C-30.66 34 -31.32 34 -32 34 C-34.13363063 29.73273874 -34.79911116 25.68866241 -34 21 C-30.56371346 11.81290333 -25.30485367 5.02999844 -16.76953125 0.12890625 C-11.29022812 -2.10454735 -5.55685092 -1.85228364 0 0 Z " fill="#040404" transform="translate(798,512)"/>
<path d="M0 0 C3.79418234 2.32296878 4.74990521 3.62836979 6.0625 7.875 C6.89859374 12.46960858 6.99658616 16.17861364 4.703125 20.34375 C1.32667899 24.82575798 -2.43414663 28.54643446 -6.9375 31.875 C-7.68 32.473125 -8.4225 33.07125 -9.1875 33.6875 C-13.42245286 35.51622964 -17.40027056 35.52836104 -21.9375 34.875 C-25.46585447 33.17382909 -27.3408197 32.09726552 -29.06640625 28.5625 C-30.74792979 23.37466056 -31.03657129 17.74043586 -29.0625 12.59375 C-22.77380512 1.83677192 -12.37145413 -4.44845904 0 0 Z " fill="#030303" transform="translate(917.9375,528.125)"/>
</svg>
